<?xml version="1.0" encoding="UTF-8"?>
<!DOCTYPE svg PUBLIC "-//W3C//DTD SVG 1.1//EN" "http://www.w3.org/Graphics/SVG/1.1/DTD/svg11.dtd">
<!-- Creator: CorelDRAW (Evaluation Version) -->
<svg xmlns="http://www.w3.org/2000/svg" xml:space="preserve" width="90px" height="70px" version="1.1" style="shape-rendering:geometricPrecision; text-rendering:geometricPrecision; image-rendering:optimizeQuality; fill-rule:evenodd; clip-rule:evenodd"
viewBox="0 0 90 70"
 xmlns:xlink="http://www.w3.org/1999/xlink"
 xmlns:xodm="http://www.corel.com/coreldraw/odm/2003">
 <defs>
  <style type="text/css">
   <![CDATA[
    .str0 {stroke:black;stroke-width:0.2;stroke-miterlimit:22.9256}
    .fil0 {fill:white}
   ]]>
  </style>
 </defs>
 <g id="Layer_x0020_1">
  <metadata id="CorelCorpID_0Corel-Layer"/>
  <g id="_707256160">
   <rect class="fil0 str0" transform="matrix(1.67589 -2.40235E+000 1.11953 2.30024 11.208 16.6708)" width="2.12" height="19.46"/>
   <rect class="fil0 str0" transform="matrix(1.71126 -2.45304E+000 1.14315 2.34878 33.5239 16.1578)" width="2.12" height="19.46"/>
   <rect class="fil0 str0" transform="matrix(-1.5148E+000 -3.05948E+000 -1.46437E+000 2.58014 61.8118 11.8686)" width="2.12" height="19.46"/>
   <path class="fil0 str0" d="M37.75 11.11c0.39,-0.25 1.38,-0.35 2.59,-0.36 1.2,-0.01 2.63,0.06 4.12,0.26 1.48,0.2 3.01,0.54 4.44,0.99 1.43,0.44 2.75,0.98 3.95,1.73 1.19,0.75 2.24,1.7 3.13,2.78 0.88,1.07 1.6,2.26 2.06,3.49 0.46,1.22 0.66,2.48 0.59,3.91 -0.07,1.43 -0.41,3.03 -0.92,4.51 -0.51,1.48 -1.19,2.84 -1.75,3.81 -0.56,0.97 -1,1.55 -1.14,1.89 -0.14,0.34 0.03,0.44 3.74,4.09 3.71,3.64 10.96,10.82 14.59,14.46 3.62,3.64 3.62,3.75 3.01,4.58 -0.61,0.83 -1.84,2.4 -2.5,3.1 -0.66,0.69 -0.77,0.52 -4.44,-3.65 -3.68,-4.16 -10.93,-12.33 -14.6,-16.5 -3.68,-4.17 -3.78,-4.34 -3.73,-4.63 0.05,-0.29 0.25,-0.7 0.59,-1.3 0.34,-0.59 0.82,-1.37 1.21,-2.11 0.39,-0.73 0.7,-1.41 1.01,-2.16 0.3,-0.75 0.61,-1.56 0.74,-2.45 0.13,-0.88 0.09,-1.83 -0.05,-2.61 -0.13,-0.78 -0.36,-1.4 -0.78,-2.19 -0.42,-0.78 -1.04,-1.73 -1.77,-2.53 -0.73,-0.8 -1.58,-1.45 -2.67,-1.88 -1.09,-0.42 -2.42,-0.63 -3.76,-0.66 -1.35,-0.03 -2.71,0.1 -3.5,0.22 -0.79,0.11 -1.01,0.2 -1.12,0.25 -0.11,0.05 -0.11,0.05 -0.59,-0.95 -0.49,-1 -1.46,-3 -2.05,-4.21 -0.59,-1.21 -0.79,-1.62 -0.4,-1.88z"/>
  </g>
 </g>
</svg>
